  0
SECTION
  2
HEADER
  9
$ACADVER
  1
AC1024
  9
$ACADMAINTVER
 70
6
  9
$DWGCODEPAGE
  3
ANSI_1252
  9
$LASTSAVEDBY
  1
ezdxf
  9
$INSBASE
 10
0.0
 20
0.0
 30
0.0
  9
$EXTMIN
 10
1e+20
 20
1e+20
 30
1e+20
  9
$EXTMAX
 10
-1e+20
 20
-1e+20
 30
-1e+20
  9
$LIMMIN
 10
0.0
 20
0.0
  9
$LIMMAX
 10
420.0
 20
297.0
  9
$ORTHOMODE
 70
0
  9
$REGENMODE
 70
1
  9
$FILLMODE
 70
1
  9
$QTEXTMODE
 70
0
  9
$MIRRTEXT
 70
1
  9
$LTSCALE
 40
1.0
  9
$ATTMODE
 70
1
  9
$TEXTSIZE
 40
2.5
  9
$TRACEWID
 40
1.0
  9
$TEXTSTYLE
  7
Standard
  9
$CLAYER
  8
0
  9
$CELTYPE
  6
ByLayer
  9
$CECOLOR
 62
256
  9
$CELTSCALE
 40
1.0
  9
$DISPSILH
 70
0
  9
$DIMSCALE
 40
1.0
  9
$DIMASZ
 40
2.5
  9
$DIMEXO
 40
0.625
  9
$DIMDLI
 40
3.75
  9
$DIMRND
 40
0.0
  9
$DIMDLE
 40
0.0
  9
$DIMEXE
 40
1.25
  9
$DIMTP
 40
0.0
  9
$DIMTM
 40
0.0
  9
$DIMTXT
 40
2.5
  9
$DIMCEN
 40
2.5
  9
$DIMTSZ
 40
0.0
  9
$DIMTOL
 70
0
  9
$DIMLIM
 70
0
  9
$DIMTIH
 70
0
  9
$DIMTOH
 70
0
  9
$DIMSE1
 70
0
  9
$DIMSE2
 70
0
  9
$DIMTAD
 70
1
  9
$DIMZIN
 70
8
  9
$DIMBLK
  1

  9
$DIMASO
 70
1
  9
$DIMSHO
 70
1
  9
$DIMPOST
  1

  9
$DIMAPOST
  1

  9
$DIMALT
 70
0
  9
$DIMALTD
 70
3
  9
$DIMALTF
 40
0.03937007874
  9
$DIMLFAC
 40
1.0
  9
$DIMTOFL
 70
1
  9
$DIMTVP
 40
0.0
  9
$DIMTIX
 70
0
  9
$DIMSOXD
 70
0
  9
$DIMSAH
 70
0
  9
$DIMBLK1
  1

  9
$DIMBLK2
  1

  9
$DIMSTYLE
  2
ISO-25
  9
$DIMCLRD
 70
0
  9
$DIMCLRE
 70
0
  9
$DIMCLRT
 70
0
  9
$DIMTFAC
 40
1.0
  9
$DIMGAP
 40
0.625
  9
$DIMJUST
 70
0
  9
$DIMSD1
 70
0
  9
$DIMSD2
 70
0
  9
$DIMTOLJ
 70
0
  9
$DIMTZIN
 70
8
  9
$DIMALTZ
 70
0
  9
$DIMALTTZ
 70
0
  9
$DIMUPT
 70
0
  9
$DIMDEC
 70
2
  9
$DIMTDEC
 70
2
  9
$DIMALTU
 70
2
  9
$DIMALTTD
 70
3
  9
$DIMTXSTY
  7
Standard
  9
$DIMAUNIT
 70
0
  9
$DIMADEC
 70
0
  9
$DIMALTRND
 40
0.0
  9
$DIMAZIN
 70
0
  9
$DIMDSEP
 70
44
  9
$DIMATFIT
 70
3
  9
$DIMFRAC
 70
0
  9
$DIMLDRBLK
  1

  9
$DIMLUNIT
 70
2
  9
$DIMLWD
 70
-2
  9
$DIMLWE
 70
-2
  9
$DIMTMOVE
 70
0
  9
$DIMFXL
 40
1.0
  9
$DIMFXLON
 70
0
  9
$DIMJOGANG
 40
0.785398163397
  9
$DIMTFILL
 70
0
  9
$DIMTFILLCLR
 70
0
  9
$DIMARCSYM
 70
0
  9
$DIMLTYPE
  6

  9
$DIMLTEX1
  6

  9
$DIMLTEX2
  6

  9
$DIMTXTDIRECTION
 70
0
  9
$LUNITS
 70
2
  9
$LUPREC
 70
4
  9
$SKETCHINC
 40
1.0
  9
$FILLETRAD
 40
10.0
  9
$AUNITS
 70
0
  9
$AUPREC
 70
2
  9
$MENU
  1
.
  9
$ELEVATION
 40
0.0
  9
$PELEVATION
 40
0.0
  9
$THICKNESS
 40
0.0
  9
$LIMCHECK
 70
0
  9
$CHAMFERA
 40
0.0
  9
$CHAMFERB
 40
0.0
  9
$CHAMFERC
 40
0.0
  9
$CHAMFERD
 40
0.0
  9
$SKPOLY
 70
0
  9
$TDCREATE
 40
2461243.5855324073
  9
$TDUCREATE
 40
2458532.153996898
  9
$TDUPDATE
 40
2461243.5855324073
  9
$TDUUPDATE
 40
2458532.1544311
  9
$TDINDWG
 40
0.0
  9
$TDUSRTIMER
 40
0.0
  9
$USRTIMER
 70
1
  9
$ANGBASE
 50
0.0
  9
$ANGDIR
 70
0
  9
$PDMODE
 70
0
  9
$PDSIZE
 40
0.0
  9
$PLINEWID
 40
0.0
  9
$SPLFRAME
 70
0
  9
$SPLINETYPE
 70
6
  9
$SPLINESEGS
 70
8
  9
$HANDSEED
  5
55
  9
$SURFTAB1
 70
6
  9
$SURFTAB2
 70
6
  9
$SURFTYPE
 70
6
  9
$SURFU
 70
6
  9
$SURFV
 70
6
  9
$UCSBASE
  2

  9
$UCSNAME
  2

  9
$UCSORG
 10
0.0
 20
0.0
 30
0.0
  9
$UCSXDIR
 10
1.0
 20
0.0
 30
0.0
  9
$UCSYDIR
 10
0.0
 20
1.0
 30
0.0
  9
$UCSORTHOREF
  2

  9
$UCSORTHOVIEW
 70
0
  9
$UCSORGTOP
 10
0.0
 20
0.0
 30
0.0
  9
$UCSORGBOTTOM
 10
0.0
 20
0.0
 30
0.0
  9
$UCSORGLEFT
 10
0.0
 20
0.0
 30
0.0
  9
$UCSORGRIGHT
 10
0.0
 20
0.0
 30
0.0
  9
$UCSORGFRONT
 10
0.0
 20
0.0
 30
0.0
  9
$UCSORGBACK
 10
0.0
 20
0.0
 30
0.0
  9
$PUCSBASE
  2

  9
$PUCSNAME
  2

  9
$PUCSORG
 10
0.0
 20
0.0
 30
0.0
  9
$PUCSXDIR
 10
1.0
 20
0.0
 30
0.0
  9
$PUCSYDIR
 10
0.0
 20
1.0
 30
0.0
  9
$PUCSORTHOREF
  2

  9
$PUCSORTHOVIEW
 70
0
  9
$PUCSORGTOP
 10
0.0
 20
0.0
 30
0.0
  9
$PUCSORGBOTTOM
 10
0.0
 20
0.0
 30
0.0
  9
$PUCSORGLEFT
 10
0.0
 20
0.0
 30
0.0
  9
$PUCSORGRIGHT
 10
0.0
 20
0.0
 30
0.0
  9
$PUCSORGFRONT
 10
0.0
 20
0.0
 30
0.0
  9
$PUCSORGBACK
 10
0.0
 20
0.0
 30
0.0
  9
$USERI1
 70
0
  9
$USERI2
 70
0
  9
$USERI3
 70
0
  9
$USERI4
 70
0
  9
$USERI5
 70
0
  9
$USERR1
 40
0.0
  9
$USERR2
 40
0.0
  9
$USERR3
 40
0.0
  9
$USERR4
 40
0.0
  9
$USERR5
 40
0.0
  9
$WORLDVIEW
 70
1
  9
$SHADEDGE
 70
3
  9
$SHADEDIF
 70
70
  9
$TILEMODE
 70
1
  9
$MAXACTVP
 70
64
  9
$PINSBASE
 10
0.0
 20
0.0
 30
0.0
  9
$PLIMCHECK
 70
0
  9
$PEXTMIN
 10
1e+20
 20
1e+20
 30
1e+20
  9
$PEXTMAX
 10
-1e+20
 20
-1e+20
 30
-1e+20
  9
$PLIMMIN
 10
0.0
 20
0.0
  9
$PLIMMAX
 10
420.0
 20
297.0
  9
$UNITMODE
 70
0
  9
$VISRETAIN
 70
1
  9
$PLINEGEN
 70
0
  9
$PSLTSCALE
 70
1
  9
$TREEDEPTH
 70
3020
  9
$CMLSTYLE
  2
Standard
  9
$CMLJUST
 70
0
  9
$CMLSCALE
 40
20.0
  9
$PROXYGRAPHICS
 70
1
  9
$MEASUREMENT
 70
1
  9
$CELWEIGHT
370
-1
  9
$ENDCAPS
280
0
  9
$JOINSTYLE
280
0
  9
$LWDISPLAY
290
0
  9
$INSUNITS
 70
4
  9
$HYPERLINKBASE
  1

  9
$STYLESHEET
  1

  9
$XEDIT
290
1
  9
$CEPSNTYPE
380
0
  9
$PSTYLEMODE
290
1
  9
$FINGERPRINTGUID
  2
{F512E67C-3FC6-4CBA-9F27-60FDBA2A13DE}
  9
$VERSIONGUID
  2
{2D2A2304-2EB7-4492-A5DE-753B5DB21EAB}
  9
$EXTNAMES
290
1
  9
$PSVPSCALE
 40
0.0
  9
$OLESTARTUP
290
0
  9
$SORTENTS
280
127
  9
$INDEXCTL
280
0
  9
$HIDETEXT
280
1
  9
$XCLIPFRAME
280
1
  9
$HALOGAP
280
0
  9
$OBSCOLOR
 70
257
  9
$OBSLTYPE
280
0
  9
$INTERSECTIONDISPLAY
280
0
  9
$INTERSECTIONCOLOR
 70
257
  9
$DIMASSOC
280
2
  9
$PROJECTNAME
  1

  9
$CAMERADISPLAY
290
0
  9
$LENSLENGTH
 40
50.0
  9
$CAMERAHEIGHT
 40
0.0
  9
$STEPSPERSEC
 40
24.0
  9
$STEPSIZE
 40
100.0
  9
$3DDWFPREC
 40
2.0
  9
$PSOLWIDTH
 40
0.005
  9
$PSOLHEIGHT
 40
0.08
  9
$LOFTANG1
 40
1.570796326795
  9
$LOFTANG2
 40
1.570796326795
  9
$LOFTMAG1
 40
0.0
  9
$LOFTMAG2
 40
0.0
  9
$LOFTPARAM
 70
7
  9
$LOFTNORMALS
280
1
  9
$LATITUDE
 40
37.795
  9
$LONGITUDE
 40
-122.394
  9
$NORTHDIRECTION
 40
0.0
  9
$TIMEZONE
 70
-8000
  9
$LIGHTGLYPHDISPLAY
280
1
  9
$TILEMODELIGHTSYNCH
280
1
  9
$CMATERIAL
347
20
  9
$SOLIDHIST
280
0
  9
$SHOWHIST
280
1
  9
$DWFFRAME
280
2
  9
$DGNFRAME
280
2
  9
$REALWORLDSCALE
290
1
  9
$INTERFERECOLOR
 62
256
  9
$CSHADOW
280
0
  9
$SHADOWPLANELOCATION
 40
0.0
  0
ENDSEC
  0
SECTION
  2
CLASSES
  0
CLASS
  1
ACDBDICTIONARYWDFLT
  2
AcDbDictionaryWithDefault
  3
ObjectDBX Classes
 90
0
 91
0
280
0
281
0
  0
CLASS
  1
SUN
  2
AcDbSun
  3
SCENEOE
 90
1153
 91
0
280
0
281
0
  0
CLASS
  1
VISUALSTYLE
  2
AcDbVisualStyle
  3
ObjectDBX Classes
 90
4095
 91
0
280
0
281
0
  0
CLASS
  1
MATERIAL
  2
AcDbMaterial
  3
ObjectDBX Classes
 90
1153
 91
0
280
0
281
0
  0
CLASS
  1
SCALE
  2
AcDbScale
  3
ObjectDBX Classes
 90
1153
 91
0
280
0
281
0
  0
CLASS
  1
TABLESTYLE
  2
AcDbTableStyle
  3
ObjectDBX Classes
 90
4095
 91
0
280
0
281
0
  0
CLASS
  1
MLEADERSTYLE
  2
AcDbMLeaderStyle
  3
ACDB_MLEADERSTYLE_CLASS
 90
4095
 91
0
280
0
281
0
  0
CLASS
  1
DICTIONARYVAR
  2
AcDbDictionaryVar
  3
ObjectDBX Classes
 90
0
 91
0
280
0
281
0
  0
CLASS
  1
CELLSTYLEMAP
  2
AcDbCellStyleMap
  3
ObjectDBX Classes
 90
1152
 91
0
280
0
281
0
  0
CLASS
  1
MENTALRAYRENDERSETTINGS
  2
AcDbMentalRayRenderSettings
  3
SCENEOE
 90
1024
 91
0
280
0
281
0
  0
CLASS
  1
ACDBDETAILVIEWSTYLE
  2
AcDbDetailViewStyle
  3
ObjectDBX Classes
 90
1025
 91
0
280
0
281
0
  0
CLASS
  1
ACDBSECTIONVIEWSTYLE
  2
AcDbSectionViewStyle
  3
ObjectDBX Classes
 90
1025
 91
0
280
0
281
0
  0
CLASS
  1
RASTERVARIABLES
  2
AcDbRasterVariables
  3
ISM
 90
0
 91
0
280
0
281
0
  0
CLASS
  1
LAYOUT
  2
AcDbLayout
  3
ObjectDBX Classes
 90
0
 91
0
280
0
281
0
  0
CLASS
  1
ACDBPLACEHOLDER
  2
AcDbPlaceHolder
  3
ObjectDBX Classes
 90
0
 91
0
280
0
281
0
  0
ENDSEC
  0
SECTION
  2
TABLES
  0
TABLE
  2
VPORT
  5
8
330
0
100
AcDbSymbolTable
 70
1
  0
VPORT
  5
23
330
8
100
AcDbSymbolTableRecord
100
AcDbViewportTableRecord
  2
*Active
 70
0
 10
0.0
 20
0.0
 11
1.0
 21
1.0
 12
0.0
 22
0.0
 13
0.0
 23
0.0
 14
0.5
 24
0.5
 15
0.5
 25
0.5
 16
0.0
 26
0.0
 36
1.0
 17
0.0
 27
0.0
 37
0.0
 40
1000.0
 41
1.34
 42
50.0
 43
0.0
 44
0.0
 50
0.0
 51
0.0
 71
0
 72
1000
 73
1
 74
3
 75
0
 76
0
 77
0
 78
0
281
0
 65
0
146
0.0
  0
ENDTAB
  0
TABLE
  2
LTYPE
  5
2
330
0
100
AcDbSymbolTable
 70
3
  0
LTYPE
  5
24
330
2
100
AcDbSymbolTableRecord
100
AcDbLinetypeTableRecord
  2
ByBlock
 70
0
  3

 72
65
 73
0
 40
0.0
  0
LTYPE
  5
25
330
2
100
AcDbSymbolTableRecord
100
AcDbLinetypeTableRecord
  2
ByLayer
 70
0
  3

 72
65
 73
0
 40
0.0
  0
LTYPE
  5
26
330
2
100
AcDbSymbolTableRecord
100
AcDbLinetypeTableRecord
  2
Continuous
 70
0
  3

 72
65
 73
0
 40
0.0
  0
ENDTAB
  0
TABLE
  2
LAYER
  5
1
330
0
100
AcDbSymbolTable
 70
6
  0
LAYER
  5
27
330
1
100
AcDbSymbolTableRecord
100
AcDbLayerTableRecord
  2
0
 70
0
 62
7
  6
Continuous
370
-3
390
13
347
21
  0
LAYER
  5
28
330
1
100
AcDbSymbolTableRecord
100
AcDbLayerTableRecord
  2
Defpoints
 70
0
 62
7
  6
Continuous
290
0
370
-3
390
13
347
21
  0
LAYER
  5
2F
330
1
100
AcDbSymbolTableRecord
100
AcDbLayerTableRecord
  2
裁片
 70
0
 62
1
  6
Continuous
370
35
390
13
347
21
  0
LAYER
  5
30
330
1
100
AcDbSymbolTableRecord
100
AcDbLayerTableRecord
  2
标注
 70
0
 62
3
  6
Continuous
370
15
390
13
347
21
  0
LAYER
  5
31
330
1
100
AcDbSymbolTableRecord
100
AcDbLayerTableRecord
  2
参考
 70
0
 62
4
  6
Continuous
370
13
390
13
347
21
  0
LAYER
  5
32
330
1
100
AcDbSymbolTableRecord
100
AcDbLayerTableRecord
  2
缝份
 70
0
 62
2
  6
DASHED2
370
20
390
13
347
21
  0
ENDTAB
  0
TABLE
  2
STYLE
  5
5
330
0
100
AcDbSymbolTable
 70
1
  0
STYLE
  5
29
330
5
100
AcDbSymbolTableRecord
100
AcDbTextStyleTableRecord
  2
Standard
 70
0
 40
0.0
 41
1.0
 50
0.0
 71
0
 42
2.5
  3
txt
  4

  0
ENDTAB
  0
TABLE
  2
VIEW
  5
7
330
0
100
AcDbSymbolTable
 70
0
  0
ENDTAB
  0
TABLE
  2
UCS
  5
6
330
0
100
AcDbSymbolTable
 70
0
  0
ENDTAB
  0
TABLE
  2
APPID
  5
3
330
0
100
AcDbSymbolTable
 70
3
  0
APPID
  5
2A
330
3
100
AcDbSymbolTableRecord
100
AcDbRegAppTableRecord
  2
ACAD
 70
0
  0
APPID
  5
52
330
3
100
AcDbSymbolTableRecord
100
AcDbRegAppTableRecord
  2
HATCHBACKGROUNDCOLOR
 70
0
  0
APPID
  5
53
330
3
100
AcDbSymbolTableRecord
100
AcDbRegAppTableRecord
  2
EZDXF
 70
0
  0
ENDTAB
  0
TABLE
  2
DIMSTYLE
  5
4
330
0
100
AcDbSymbolTable
 70
1
100
AcDbDimStyleTable
  0
DIMSTYLE
105
2B
330
4
100
AcDbSymbolTableRecord
100
AcDbDimStyleTableRecord
  2
Standard
 70
0
 40
1.0
 41
2.5
 42
0.625
 43
3.75
 44
1.25
 45
0.0
 46
0.0
 47
0.0
 48
0.0
 49
2.5
140
2.5
141
2.5
142
0.0
143
0.03937007874
144
1.0
145
0.0
146
1.0
147
0.625
148
0.0
 69
0
 70
0
 71
0
 72
0
 73
0
 74
0
 75
0
 76
0
 77
1
 78
8
 79
3
170
0
171
3
172
1
173
0
174
0
175
0
176
0
177
0
178
0
179
2
271
2
272
2
273
2
274
3
275
0
276
0
277
2
278
44
279
0
280
0
281
0
282
0
283
0
284
8
285
0
286
0
288
0
289
3
290
0
371
-2
372
-2
  0
ENDTAB
  0
TABLE
  2
BLOCK_RECORD
  5
9
330
0
100
AcDbSymbolTable
 70
2
  0
BLOCK_RECORD
  5
17
330
9
100
AcDbSymbolTableRecord
100
AcDbBlockTableRecord
  2
*Model_Space
340
1A
 70
0
280
1
281
0
  0
BLOCK_RECORD
  5
1B
330
9
100
AcDbSymbolTableRecord
100
AcDbBlockTableRecord
  2
*Paper_Space
340
1E
 70
0
280
1
281
0
  0
ENDTAB
  0
ENDSEC
  0
SECTION
  2
BLOCKS
  0
BLOCK
  5
18
330
17
100
AcDbEntity
  8
0
100
AcDbBlockBegin
  2
*Model_Space
 70
0
 10
0.0
 20
0.0
 30
0.0
  3
*Model_Space
  1

  0
ENDBLK
  5
19
330
17
100
AcDbEntity
  8
0
100
AcDbBlockEnd
  0
BLOCK
  5
1C
330
1B
100
AcDbEntity
  8
0
100
AcDbBlockBegin
  2
*Paper_Space
 70
0
 10
0.0
 20
0.0
 30
0.0
  3
*Paper_Space
  1

  0
ENDBLK
  5
1D
330
1B
100
AcDbEntity
  8
0
100
AcDbBlockEnd
  0
ENDSEC
  0
SECTION
  2
ENTITIES
  0
LWPOLYLINE
  5
33
330
17
100
AcDbEntity
  8
裁片
 62
1
100
AcDbPolyline
 90
126
 70
1
 10
100.0
 20
566.0
 10
100.0
 20
566.0
 10
102.856
 20
569.8646249999999
 10
105.988
 20
574.2070000000001
 10
109.342
 20
578.949875
 10
112.864
 20
584.0160000000001
 10
116.5
 20
589.328125
 10
120.196
 20
594.809
 10
123.898
 20
600.381375
 10
127.55199999999999
 20
605.968
 10
131.104
 20
611.4916250000001
 10
134.5
 20
616.875
 10
137.686
 20
622.040875
 10
140.608
 20
626.912
 10
143.212
 20
631.4111250000001
 10
145.444
 20
635.461
 10
147.25
 20
638.984375
 10
148.57600000000002
 20
641.904
 10
149.368
 20
644.142625
 10
149.572
 20
645.623
 10
149.13400000000001
 20
646.267875
 10
341.5
 20
616.0
 10
341.5
 20
616.0
 10
338.70062499999995
 20
609.9975999999999
 10
336.28
 20
601.2028
 10
334.20437499999997
 20
589.9341999999999
 10
332.44000000000005
 20
576.5104000000001
 10
330.953125
 20
561.25
 10
329.71
 20
544.4716
 10
328.676875
 20
526.4938
 10
327.81999999999994
 20
507.6352
 10
327.10562500000003
 20
488.21440000000007
 10
326.5
 20
468.54999999999995
 10
325.969375
 20
448.9606
 10
325.48
 20
429.76480000000004
 10
324.99812499999996
 20
411.2812
 10
324.49
 20
393.8284
 10
323.921875
 20
377.725
 10
323.26000000000005
 20
363.28959999999995
 10
322.470625
 20
350.8408
 10
321.52
 20
340.6972
 10
320.374375
 20
333.1774
 10
319.0
 20
328.6
 10
319.0
 20
328.6
 10
318.81575
 20
324.1114
 10
318.006
 20
319.6492
 10
316.63525
 20
315.2188
 10
314.7680000000001
 20
310.8256
 10
312.46875
 20
306.475
 10
309.8019999999999
 20
302.1724
 10
306.83225
 20
297.9232
 10
303.624
 20
293.7328
 10
300.24175
 20
289.6066
 10
296.75
 20
285.55
 10
293.21325
 20
281.5684
 10
289.696
 20
277.6672
 10
286.26275
 20
273.8518
 10
282.978
 20
270.12760000000003
 10
279.90625
 20
266.5
 10
277.112
 20
262.9744
 10
274.65975
 20
259.5562
 10
272.61400000000003
 20
256.2508
 10
271.03925
 20
253.0636
 10
277.67375
 20
214.59875
 10
281.44000000000005
 20
171.99
 10
281.66625
 20
123.06625
 10
278.72
 20
68.71999999999994
 10
272.96875
 20
9.84375
 10
264.78
 20
-52.66999999999996
 10
254.52125
 20
-117.92874999999998
 10
242.55999999999997
 20
-185.04000000000002
 10
229.26375000000004
 20
-253.1112500000001
 10
215.0
 20
-321.25
 10
200.13625
 20
-388.56375
 10
185.04000000000002
 20
-454.1600000000001
 10
170.07875
 20
-517.14625
 10
155.62
 20
-576.6299999999999
 10
142.03125
 20
-631.71875
 10
129.68
 20
-681.5200000000001
 10
118.93375
 20
-725.1412499999999
 10
110.16
 20
-761.69
 10
103.72625000000001
 20
-790.2737500000001
 10
100.0
 20
-810.0
 10
100.0
 20
-810.0
 10
100.93125
 20
-767.6654999999998
 10
102.2
 20
-722.8740000000001
 10
103.76875
 20
-676.0935000000001
 10
105.60000000000001
 20
-627.7920000000003
 10
107.65625
 20
-578.4375
 10
109.9
 20
-528.4979999999997
 10
112.29375
 20
-478.4415
 10
114.8
 20
-428.736
 10
117.38125000000001
 20
-379.84950000000015
 10
120.0
 20
-332.25
 10
122.61875
 20
-286.40549999999996
 10
125.2
 20
-242.7840000000001
 10
127.70625
 20
-201.85349999999994
 10
130.1
 20
-164.082
 10
132.34375
 20
-129.9375
 10
134.4
 20
-99.88800000000003
 10
136.23125
 20
-74.4015
 10
137.8
 20
-53.946000000000026
 10
139.06875
 20
-38.98950000000002
 10
140.0
 20
-30.0
 10
100.0
 20
-18.0
 10
100.0
 20
-18.0
 10
100.0
 20
-14.507000000000005
 10
100.0
 20
-2.8360000000000127
 10
100.0
 20
16.101000000000028
 10
100.0
 20
41.39199999999994
 10
100.0
 20
72.125
 10
100.0
 20
107.38800000000006
 10
100.0
 20
146.269
 10
100.0
 20
187.85600000000005
 10
100.0
 20
231.23699999999997
 10
100.0
 20
275.5
 10
100.0
 20
319.73300000000006
 10
100.0
 20
363.024
 10
100.0
 20
404.461
 10
100.0
 20
443.13199999999995
 10
100.0
 20
478.125
 10
100.0
 20
508.528
 10
100.0
 20
533.429
 10
100.0
 20
551.916
 10
100.0
 20
563.077
 10
100.0
 20
566.0
  0
LINE
  5
34
330
17
100
AcDbEntity
  8
参考
 62
4
100
AcDbLine
 10
95.0
 20
250.0
 30
0.0
 11
105.0
 21
250.0
 31
0.0
  0
LINE
  5
35
330
17
100
AcDbEntity
  8
参考
 62
4
100
AcDbLine
 10
100.0
 20
245.0
 30
0.0
 11
100.0
 21
255.0
 31
0.0
  0
TEXT
  5
36
330
17
100
AcDbEntity
  8
参考
 62
4
100
AcDbText
 10
100.0
 20
240.0
 30
0.0
 40
3.5
  1
前片 Front
 72
1
 11
100.0
 21
240.0
 31
0.0
100
AcDbText
 73
2
  0
LWPOLYLINE
  5
37
330
17
100
AcDbEntity
  8
缝份
 62
2
100
AcDbPolyline
 90
126
 70
1
 10
100.0
 20
565.0
 10
100.0
 20
565.0
 10
92.856
 20
568.8646249999999
 10
95.988
 20
573.2070000000001
 10
99.342
 20
577.949875
 10
102.864
 20
583.0160000000001
 10
106.5
 20
588.328125
 10
110.196
 20
593.809
 10
113.898
 20
599.381375
 10
117.55199999999999
 20
604.968
 10
121.10400000000001
 20
610.4916250000001
 10
124.5
 20
615.875
 10
127.686
 20
621.040875
 10
130.608
 20
625.912
 10
133.212
 20
630.4111250000001
 10
135.444
 20
634.461
 10
137.25
 20
637.984375
 10
138.57600000000002
 20
640.904
 10
139.368
 20
643.142625
 10
139.572
 20
644.623
 10
139.13400000000001
 20
645.267875
 10
331.5
 20
615.0
 10
331.5
 20
615.0
 10
328.70062499999995
 20
608.9975999999999
 10
326.28
 20
600.2028
 10
324.20437499999997
 20
588.9341999999999
 10
322.44000000000005
 20
575.5104000000001
 10
320.953125
 20
560.25
 10
319.71
 20
543.4716
 10
318.676875
 20
525.4938
 10
317.81999999999994
 20
506.6352
 10
317.10562500000003
 20
487.21440000000007
 10
316.5
 20
467.54999999999995
 10
315.969375
 20
447.9606
 10
315.48
 20
428.76480000000004
 10
314.99812499999996
 20
410.2812
 10
314.49
 20
392.8284
 10
313.921875
 20
376.725
 10
313.26000000000005
 20
362.28959999999995
 10
312.470625
 20
349.8408
 10
311.52
 20
339.6972
 10
310.374375
 20
332.1774
 10
309.0
 20
327.6
 10
309.0
 20
327.6
 10
308.81575
 20
323.1114
 10
308.006
 20
318.6492
 10
306.63525
 20
314.2188
 10
304.7680000000001
 20
309.8256
 10
302.46875
 20
305.475
 10
299.8019999999999
 20
301.1724
 10
296.83225
 20
296.9232
 10
293.624
 20
292.7328
 10
290.24175
 20
288.6066
 10
286.75
 20
284.55
 10
283.21325
 20
280.5684
 10
279.696
 20
276.6672
 10
276.26275
 20
272.8518
 10
272.978
 20
269.12760000000003
 10
269.90625
 20
265.5
 10
267.112
 20
261.9744
 10
264.65975
 20
258.5562
 10
262.61400000000003
 20
255.2508
 10
261.03925
 20
252.0636
 10
267.67375
 20
213.59875
 10
271.44000000000005
 20
170.99
 10
271.66625
 20
122.06625
 10
268.72
 20
67.71999999999994
 10
262.96875
 20
8.84375
 10
254.77999999999997
 20
-53.66999999999996
 10
244.52125
 20
-118.92874999999998
 10
232.55999999999997
 20
-186.04000000000002
 10
219.26375000000004
 20
-254.1112500000001
 10
205.0
 20
-322.25
 10
190.13625
 20
-389.56375
 10
175.04000000000002
 20
-455.1600000000001
 10
160.07875
 20
-518.14625
 10
145.62
 20
-577.6299999999999
 10
132.03125
 20
-632.71875
 10
119.67999999999999
 20
-682.5200000000001
 10
108.93375
 20
-726.1412499999999
 10
100.16
 20
-762.69
 10
93.72625000000001
 20
-791.2737500000001
 10
100.0
 20
-811.0
 10
100.0
 20
-811.0
 10
90.93125
 20
-768.6654999999998
 10
92.2
 20
-723.8740000000001
 10
93.76875
 20
-677.0935000000001
 10
95.60000000000001
 20
-628.7920000000003
 10
97.65625
 20
-579.4375
 10
99.9
 20
-529.4979999999997
 10
102.29375
 20
-479.4415
 10
104.8
 20
-429.736
 10
107.38125000000001
 20
-380.84950000000015
 10
110.0
 20
-333.25
 10
112.61875
 20
-287.40549999999996
 10
115.2
 20
-243.7840000000001
 10
117.70625
 20
-202.85349999999994
 10
120.1
 20
-165.082
 10
122.34375
 20
-130.9375
 10
124.4
 20
-100.88800000000003
 10
126.23124999999999
 20
-75.4015
 10
127.80000000000001
 20
-54.946000000000026
 10
129.06875
 20
-39.98950000000002
 10
130.0
 20
-31.0
 10
100.0
 20
-19.0
 10
100.0
 20
-19.0
 10
100.0
 20
-15.507000000000005
 10
100.0
 20
-3.8360000000000127
 10
100.0
 20
15.101000000000028
 10
100.0
 20
40.39199999999994
 10
100.0
 20
71.125
 10
100.0
 20
106.38800000000006
 10
100.0
 20
145.269
 10
100.0
 20
186.85600000000005
 10
100.0
 20
230.23699999999997
 10
100.0
 20
274.5
 10
100.0
 20
318.73300000000006
 10
100.0
 20
362.024
 10
100.0
 20
403.461
 10
100.0
 20
442.13199999999995
 10
100.0
 20
477.125
 10
100.0
 20
507.528
 10
100.0
 20
532.429
 10
100.0
 20
550.916
 10
100.0
 20
562.077
 10
100.0
 20
565.0
  0
LINE
  5
38
330
17
100
AcDbEntity
  8
标注
 62
3
100
AcDbLine
 10
293.9456571305288
 20
257.18369713915865
 30
0.0
 11
353.9456571305288
 21
57.18369713915864
 31
0.0
  0
LINE
  5
39
330
17
100
AcDbEntity
  8
标注
 62
3
100
AcDbLine
 10
270.0
 20
250.0
 30
0.0
 11
293.9456571305288
 21
257.18369713915865
 31
0.0
  0
LINE
  5
3A
330
17
100
AcDbEntity
  8
标注
 62
3
100
AcDbLine
 10
330.0
 20
50.0
 30
0.0
 11
353.9456571305288
 21
57.18369713915864
 31
0.0
  0
TEXT
  5
3B
330
17
100
AcDbEntity
  8
标注
 62
3
100
AcDbText
 10
323.9456571305288
 20
157.18369713915865
 30
0.0
 40
3.0
  1
腰→臀 20cm
 72
1
 11
323.9456571305288
 21
157.18369713915865
 31
0.0
100
AcDbText
 73
2
  0
LINE
  5
3C
330
17
100
AcDbEntity
  8
标注
 62
3
100
AcDbLine
 10
122.0236220574214
 20
-29.07813446448315
 30
0.0
 11
82.0236220574214
 21
-809.0781344644831
 31
0.0
  0
LINE
  5
3D
330
17
100
AcDbEntity
  8
标注
 62
3
100
AcDbLine
 10
140.0
 20
-30.0
 30
0.0
 11
122.0236220574214
 21
-29.07813446448315
 31
0.0
  0
LINE
  5
3E
330
17
100
AcDbEntity
  8
标注
 62
3
100
AcDbLine
 10
100.0
 20
-810.0
 30
0.0
 11
82.0236220574214
 21
-809.0781344644831
 31
0.0
  0
TEXT
  5
3F
330
17
100
AcDbEntity
  8
标注
 62
3
100
AcDbText
 10
102.0236220574214
 20
-419.0781344644831
 30
0.0
 40
3.0
  1
裆→踝 78cm
 72
1
 11
102.0236220574214
 21
-419.0781344644831
 31
0.0
100
AcDbText
 73
2
  0
LWPOLYLINE
  5
40
330
17
100
AcDbEntity
  8
裁片
 62
5
100
AcDbPolyline
 90
126
 70
1
 10
160.0
 20
616.0
 10
160.0
 20
616.0
 10
163.12675
 20
614.899375
 10
166.474
 20
614.5450000000001
 10
169.99225
 20
614.858125
 10
173.632
 20
615.7600000000001
 10
177.34375
 20
617.171875
 10
181.078
 20
619.0149999999999
 10
184.78525
 20
621.2106249999999
 10
188.416
 20
623.68
 10
191.92075
 20
626.3443750000001
 10
195.25
 20
629.125
 10
198.35425
 20
631.943125
 10
201.184
 20
634.72
 10
203.68975
 20
637.3768749999999
 10
205.822
 20
639.835
 10
207.53125
 20
642.015625
 10
208.768
 20
643.84
 10
209.48275
 20
645.229375
 10
209.626
 20
646.105
 10
209.14825000000002
 20
646.388125
 10
406.5
 20
616.0
 10
406.5
 20
616.0
 10
403.664375
 20
607.2900999999999
 10
401.14
 20
596.3428
 10
398.90062499999993
 20
583.4316999999999
 10
396.9200000000001
 20
568.8304
 10
395.171875
 20
552.8125
 10
393.62999999999994
 20
535.6515999999999
 10
392.26812500000005
 20
517.6213
 10
391.05999999999995
 20
498.99519999999995
 10
389.979375
 20
480.04690000000005
 10
389.0
 20
461.04999999999995
 10
388.095625
 20
442.2781
 10
387.24
 20
424.00480000000005
 10
386.406875
 20
406.5037
 10
385.57
 20
390.0484
 10
384.703125
 20
374.9125
 10
383.78000000000003
 20
361.3696
 10
382.77437499999996
 20
349.6933
 10
381.65999999999997
 20
340.1572
 10
380.410625
 20
333.0349
 10
379.0
 20
328.6
 10
379.0
 20
328.6
 10
378.81575
 20
324.1114
 10
378.006
 20
319.6492
 10
376.63525
 20
315.2188
 10
374.7680000000001
 20
310.8256
 10
372.46875
 20
306.475
 10
369.8019999999999
 20
302.1724
 10
366.83225
 20
297.9232
 10
363.624
 20
293.7328
 10
360.24175
 20
289.6066
 10
356.75
 20
285.55
 10
353.21325
 20
281.5684
 10
349.696
 20
277.6672
 10
346.26275
 20
273.8518
 10
342.978
 20
270.12760000000003
 10
339.90625
 20
266.5
 10
337.112
 20
262.9744
 10
334.65975
 20
259.5562
 10
332.61400000000003
 20
256.2508
 10
331.03925
 20
253.0636
 10
337.67375
 20
214.59875
 10
341.44000000000005
 20
171.99
 10
341.66625
 20
123.06625
 10
338.72
 20
68.71999999999994
 10
332.96875
 20
9.84375
 10
324.78
 20
-52.66999999999996
 10
314.52125
 20
-117.92874999999998
 10
302.55999999999995
 20
-185.04000000000002
 10
289.2637500000001
 20
-253.1112500000001
 10
275.0
 20
-321.25
 10
260.13625
 20
-388.56375
 10
245.04000000000002
 20
-454.1600000000001
 10
230.07875
 20
-517.14625
 10
215.62
 20
-576.6299999999999
 10
202.03125
 20
-631.71875
 10
189.68
 20
-681.5200000000001
 10
178.93375
 20
-725.1412499999999
 10
170.16
 20
-761.69
 10
163.72625
 20
-790.2737500000001
 10
160.0
 20
-810.0
 10
160.0
 20
-810.0
 10
160.93125
 20
-767.6654999999998
 10
162.2
 20
-722.8740000000001
 10
163.76875
 20
-676.0935000000001
 10
165.6
 20
-627.7920000000003
 10
167.65625
 20
-578.4375
 10
169.9
 20
-528.4979999999997
 10
172.29375
 20
-478.4415
 10
174.8
 20
-428.736
 10
177.38125
 20
-379.84950000000015
 10
180.0
 20
-332.25
 10
182.61875
 20
-286.40549999999996
 10
185.2
 20
-242.7840000000001
 10
187.70625
 20
-201.85349999999994
 10
190.1
 20
-164.082
 10
192.34375
 20
-129.9375
 10
194.4
 20
-99.88800000000003
 10
196.23125
 20
-74.4015
 10
197.8
 20
-53.946000000000026
 10
199.06875
 20
-38.98950000000002
 10
200.0
 20
-30.0
 10
160.0
 20
-18.0
 10
160.0
 20
-18.0
 10
160.0
 20
-14.144499999999994
 10
160.0
 20
-1.4359999999999786
 10
160.0
 20
19.13850000000005
 10
160.0
 20
46.59199999999993
 10
160.0
 20
79.9375
 10
160.0
 20
118.18800000000005
 10
160.0
 20
160.3565
 10
160.0
 20
205.45600000000005
 10
160.0
 20
252.49949999999998
 10
160.0
 20
300.5
 10
160.0
 20
348.4705
 10
160.0
 20
395.424
 10
160.0
 20
440.37350000000004
 10
160.0
 20
482.33199999999994
 10
160.0
 20
520.3125
 10
160.0
 20
553.3280000000001
 10
160.0
 20
580.3915
 10
160.0
 20
600.5160000000001
 10
160.0
 20
612.7145
 10
160.0
 20
616.0
  0
LINE
  5
41
330
17
100
AcDbEntity
  8
参考
 62
4
100
AcDbLine
 10
155.0
 20
250.0
 30
0.0
 11
165.0
 21
250.0
 31
0.0
  0
LINE
  5
42
330
17
100
AcDbEntity
  8
参考
 62
4
100
AcDbLine
 10
160.0
 20
245.0
 30
0.0
 11
160.0
 21
255.0
 31
0.0
  0
TEXT
  5
43
330
17
100
AcDbEntity
  8
参考
 62
4
100
AcDbText
 10
160.0
 20
240.0
 30
0.0
 40
3.5
  1
后片 Back
 72
1
 11
160.0
 21
240.0
 31
0.0
100
AcDbText
 73
2
  0
LWPOLYLINE
  5
44
330
17
100
AcDbEntity
  8
裁片
 62
6
100
AcDbPolyline
 90
4
 70
1
 10
220.0
 20
418.0
 10
335.0
 20
250.0
 10
220.0
 20
82.0
 10
105.0
 20
250.0
  0
LINE
  5
45
330
17
100
AcDbEntity
  8
参考
 62
4
100
AcDbLine
 10
215.0
 20
250.0
 30
0.0
 11
225.0
 21
250.0
 31
0.0
  0
LINE
  5
46
330
17
100
AcDbEntity
  8
参考
 62
4
100
AcDbLine
 10
220.0
 20
245.0
 30
0.0
 11
220.0
 21
255.0
 31
0.0
  0
TEXT
  5
47
330
17
100
AcDbEntity
  8
参考
 62
4
100
AcDbText
 10
220.0
 20
240.0
 30
0.0
 40
3.5
  1
裆片 Gusset
 72
1
 11
220.0
 21
240.0
 31
0.0
100
AcDbText
 73
2
  0
LWPOLYLINE
  5
48
330
17
100
AcDbEntity
  8
裁片
 62
7
100
AcDbPolyline
 90
4
 70
1
 10
220.0
 20
250.0
 10
260.0
 20
250.0
 10
260.0
 20
-185.60000000000002
 10
220.0
 20
-185.60000000000002
  0
LINE
  5
49
330
17
100
AcDbEntity
  8
参考
 62
4
100
AcDbLine
 10
235.0
 20
250.0
 30
0.0
 11
245.0
 21
250.0
 31
0.0
  0
LINE
  5
4A
330
17
100
AcDbEntity
  8
参考
 62
4
100
AcDbLine
 10
240.0
 20
245.0
 30
0.0
 11
240.0
 21
255.0
 31
0.0
  0
TEXT
  5
4B
330
17
100
AcDbEntity
  8
参考
 62
4
100
AcDbText
 10
240.0
 20
240.0
 30
0.0
 40
3.5
  1
拉链贴条 Zipper
 72
1
 11
240.0
 21
240.0
 31
0.0
100
AcDbText
 73
2
  0
TEXT
  5
4C
330
17
100
AcDbEntity
  8
参考
 62
4
100
AcDbText
 10
10.0
 20
300.0
 30
0.0
 40
3.0
  1
乳胶紧身连体衣 打版 DXF
 11
10.0
 21
300.0
 31
0.0
100
AcDbText
  0
TEXT
  5
4D
330
17
100
AcDbEntity
  8
参考
 62
4
100
AcDbText
 10
10.0
 20
295.0
 30
0.0
 40
3.0
  1
生成日期: 2026-07-21
 11
10.0
 21
295.0
 31
0.0
100
AcDbText
  0
TEXT
  5
4E
330
17
100
AcDbEntity
  8
参考
 62
4
100
AcDbText
 10
10.0
 20
290.0
 30
0.0
 40
3.0
  1
尺寸: 胸88.0 腰68.0 臀92.0 身高165.0
 11
10.0
 21
290.0
 31
0.0
100
AcDbText
  0
TEXT
  5
4F
330
17
100
AcDbEntity
  8
参考
 62
4
100
AcDbText
 10
10.0
 20
285.0
 30
0.0
 40
3.0
  1
缝份: 10.0mm (虚线标注)
 11
10.0
 21
285.0
 31
0.0
100
AcDbText
  0
TEXT
  5
50
330
17
100
AcDbEntity
  8
参考
 62
4
100
AcDbText
 10
10.0
 20
280.0
 30
0.0
 40
3.0
  1
注意: 纸样为单侧轮廓，实际裁布需镜像+缝份
 11
10.0
 21
280.0
 31
0.0
100
AcDbText
  0
TEXT
  5
51
330
17
100
AcDbEntity
  8
参考
 62
4
100
AcDbText
 10
10.0
 20
275.0
 30
0.0
 40
3.0
  1
单位: 毫米 (mm) — DXF INSUNITS=4
 11
10.0
 21
275.0
 31
0.0
100
AcDbText
  0
ENDSEC
  0
SECTION
  2
OBJECTS
  0
DICTIONARY
  5
A
330
0
100
AcDbDictionary
281
1
  3
ACAD_COLOR
350
B
  3
ACAD_GROUP
350
C
  3
ACAD_LAYOUT
350
D
  3
ACAD_MATERIAL
350
E
  3
ACAD_MLEADERSTYLE
350
F
  3
ACAD_MLINESTYLE
350
10
  3
ACAD_PLOTSETTINGS
350
11
  3
ACAD_PLOTSTYLENAME
350
12
  3
ACAD_SCALELIST
350
14
  3
ACAD_TABLESTYLE
350
15
  3
ACAD_VISUALSTYLE
350
16
  3
EZDXF_META
350
2D
  0
DICTIONARY
  5
B
330
A
100
AcDbDictionary
281
1
  0
DICTIONARY
  5
C
330
A
100
AcDbDictionary
281
1
  0
DICTIONARY
  5
D
330
A
100
AcDbDictionary
281
1
  3
Model
350
1A
  3
Layout1
350
1E
  0
DICTIONARY
  5
E
330
A
100
AcDbDictionary
281
1
  3
ByBlock
350
1F
  3
ByLayer
350
20
  3
Global
350
21
  0
DICTIONARY
  5
F
330
A
100
AcDbDictionary
281
1
  3
Standard
350
2C
  0
DICTIONARY
  5
10
330
A
100
AcDbDictionary
281
1
  3
Standard
350
22
  0
DICTIONARY
  5
11
330
A
100
AcDbDictionary
281
1
  0
ACDBDICTIONARYWDFLT
  5
12
330
A
100
AcDbDictionary
281
1
  3
Normal
350
13
100
AcDbDictionaryWithDefault
340
13
  0
ACDBPLACEHOLDER
  5
13
330
12
  0
DICTIONARY
  5
14
330
A
100
AcDbDictionary
281
1
  0
DICTIONARY
  5
15
330
A
100
AcDbDictionary
281
1
  0
DICTIONARY
  5
16
330
A
100
AcDbDictionary
281
1
  0
LAYOUT
  5
1A
330
D
100
AcDbPlotSettings
  1

  4
A3
  6

 40
7.5
 41
20.0
 42
7.5
 43
20.0
 44
420.0
 45
297.0
 46
0.0
 47
0.0
 48
0.0
 49
0.0
140
0.0
141
0.0
142
1.0
143
1.0
 70
1024
 72
1
 73
0
 74
5
  7

 75
16
 76
0
 77
2
 78
300
147
1.0
148
0.0
149
0.0
100
AcDbLayout
  1
Model
 70
1
 71
0
 10
0.0
 20
0.0
 11
420.0
 21
297.0
 12
0.0
 22
0.0
 32
0.0
 14
1e+20
 24
1e+20
 34
1e+20
 15
-1e+20
 25
-1e+20
 35
-1e+20
146
0.0
 13
0.0
 23
0.0
 33
0.0
 16
1.0
 26
0.0
 36
0.0
 17
0.0
 27
1.0
 37
0.0
 76
1
330
17
  0
LAYOUT
  5
1E
330
D
100
AcDbPlotSettings
  1

  4
A3
  6

 40
7.5
 41
20.0
 42
7.5
 43
20.0
 44
420.0
 45
297.0
 46
0.0
 47
0.0
 48
0.0
 49
0.0
140
0.0
141
0.0
142
1.0
143
1.0
 70
0
 72
1
 73
0
 74
5
  7

 75
16
 76
0
 77
2
 78
300
147
1.0
148
0.0
149
0.0
100
AcDbLayout
  1
Layout1
 70
1
 71
1
 10
0.0
 20
0.0
 11
420.0
 21
297.0
 12
0.0
 22
0.0
 32
0.0
 14
1e+20
 24
1e+20
 34
1e+20
 15
-1e+20
 25
-1e+20
 35
-1e+20
146
0.0
 13
0.0
 23
0.0
 33
0.0
 16
1.0
 26
0.0
 36
0.0
 17
0.0
 27
1.0
 37
0.0
 76
1
330
1B
  0
MATERIAL
  5
1F
102
{ACAD_REACTORS
330
E
102
}
330
E
100
AcDbMaterial
  1
ByBlock
  2

 70
0
 40
1.0
 71
1
 41
1.0
 91
-1023410177
 42
1.0
 72
1
  3

 73
1
 74
1
 75
1
 44
0.5
 73
0
 45
1.0
 46
1.0
 77
1
  4

 78
1
 79
1
170
1
 48
1.0
171
1
  6

172
1
173
1
174
1
140
1.0
141
1.0
175
1
  7

176
1
177
1
178
1
143
1.0
179
1
  8

270
1
271
1
272
1
145
1.0
146
1.0
273
1
  9

274
1
275
1
276
1
 42
1.0
 72
1
  3

 73
1
 74
1
 75
1
 94
63
  0
MATERIAL
  5
20
102
{ACAD_REACTORS
330
E
102
}
330
E
100
AcDbMaterial
  1
ByLayer
  2

 70
0
 40
1.0
 71
1
 41
1.0
 91
-1023410177
 42
1.0
 72
1
  3

 73
1
 74
1
 75
1
 44
0.5
 73
0
 45
1.0
 46
1.0
 77
1
  4

 78
1
 79
1
170
1
 48
1.0
171
1
  6

172
1
173
1
174
1
140
1.0
141
1.0
175
1
  7

176
1
177
1
178
1
143
1.0
179
1
  8

270
1
271
1
272
1
145
1.0
146
1.0
273
1
  9

274
1
275
1
276
1
 42
1.0
 72
1
  3

 73
1
 74
1
 75
1
 94
63
  0
MATERIAL
  5
21
102
{ACAD_REACTORS
330
E
102
}
330
E
100
AcDbMaterial
  1
Global
  2

 70
0
 40
1.0
 71
1
 41
1.0
 91
-1023410177
 42
1.0
 72
1
  3

 73
1
 74
1
 75
1
 44
0.5
 73
0
 45
1.0
 46
1.0
 77
1
  4

 78
1
 79
1
170
1
 48
1.0
171
1
  6

172
1
173
1
174
1
140
1.0
141
1.0
175
1
  7

176
1
177
1
178
1
143
1.0
179
1
  8

270
1
271
1
272
1
145
1.0
146
1.0
273
1
  9

274
1
275
1
276
1
 42
1.0
 72
1
  3

 73
1
 74
1
 75
1
 94
63
  0
MLINESTYLE
  5
22
102
{ACAD_REACTORS
330
10
102
}
330
10
100
AcDbMlineStyle
  2
Standard
 70
0
  3

 62
256
 51
90.0
 52
90.0
 71
2
 49
0.5
 62
256
  6
BYLAYER
 49
-0.5
 62
256
  6
BYLAYER
  0
MLEADERSTYLE
  5
2C
102
{ACAD_REACTORS
330
F
102
}
330
F
100
AcDbMLeaderStyle
179
2
170
2
171
1
172
0
 90
2
 40
0.0
 41
0.0
173
1
 91
-1056964608
 92
-2
290
1
 42
2.0
291
1
 43
8.0
  3
Standard
 44
4.0
300

342
29
174
1
175
1
176
0
178
1
 93
-1056964608
 45
4.0
292
0
297
0
 46
4.0
 94
-1056964608
 47
1.0
 49
1.0
140
1.0
294
1
141
0.0
177
0
142
1.0
295
0
296
0
143
3.75
271
0
272
9
273
9
  0
DICTIONARY
  5
2D
330
A
100
AcDbDictionary
280
1
281
1
  3
CREATED_BY_EZDXF
350
2E
  3
WRITTEN_BY_EZDXF
350
54
  0
DICTIONARYVAR
  5
2E
330
2D
100
DictionaryVariables
280
0
  1
1.4.4 @ 2026-07-21T06:03:10.494162+00:00
  0
DICTIONARYVAR
  5
54
330
2D
100
DictionaryVariables
280
0
  1
1.4.4 @ 2026-07-21T06:03:10.499052+00:00
  0
ENDSEC
  0
EOF
